<svg xmlns="http://www.w3.org/2000/svg" viewBox="0 0 512 512"><defs><style>.a{fill:#eaeaea;}.b{fill:#212327;}</style></defs><title>awoo</title><path class="a" d="M350.44,156.7c10-6.08,18.9-11.5,28-17l24.66,19.06c10.46-25.76,7.07-49.43-10.1-71.38-5.25,3.32-10.41,6.5-15.49,9.81-15.71,10.21-31.43,20.41-47,30.78-3.08,2-5.61,2.17-9,.62-8.29-3.81-16.66-7.56-25.25-10.59a120.38,120.38,0,0,0-61.75-4.78A140.67,140.67,0,0,0,192,127.65c-3.36,1.81-6.54,2.94-10.39.43-15.3-10-30.77-19.69-46.18-29.49-6.11-3.89-12.22-7.74-18.33-11.61-16.37,26.26-18.37,53.66-8,72.85L135,138.89l25.35,18.6c-48.59,44-71.91,98-72.49,162.13a19.53,19.53,0,0,0,2.21,1.15c1.55.51,3.12,1,4.7,1.41,19.5,4.92,39.28,8.73,57.51,18,16.7,8.47,29.73,20.38,37.36,37.49,8.58,19.25,16.46,38.8,24.74,58.18a74.31,74.31,0,0,0,4.32,7.59l1.38-.27c1.35-5.12,2.94-10.19,4-15.37.91-4.5,3.16-6,7.77-6,14.81.26,29.62.09,44.43.09,10.29,0,10.14,0,12.2,9.89.82,3.94,2.49,7.7,3.92,12,1.32-1.15,1.83-1.39,2-1.77,7.31-17.22,15.34-34.18,21.69-51.74,7.45-20.59,20.16-36.6,38.53-47.77,15.12-9.18,32.15-14,49.4-17.7l20.86-4.47C422.17,255.65,400.07,200.35,350.44,156.7ZM194.52,314.85A23.51,23.51,0,1,1,218,291.34,23.51,23.51,0,0,1,194.52,314.85Zm123,0A23.51,23.51,0,1,1,341,291.34,23.52,23.52,0,0,1,317.48,314.85Z"/><path class="b" d="M53,349c0-10.57-.9-21,.2-31.16,2-18.86,4.42-37.74,8.15-56.32a204.22,204.22,0,0,1,18.19-53.08,18.47,18.47,0,0,0,.74-16.15A157.71,157.71,0,0,1,70,129.54c.74-22.11,6.13-43.16,17.65-62.28C93.32,57.89,99.54,48.87,106,39l32.67,21.11c14.94,9.67,29.93,19.28,44.78,29.1,2.86,1.88,5.1,1.94,8.35.83C227.64,77.67,264,74.39,301,84.84c7.43,2.1,14.83,4.27,23,6.63l81-51.74c8.66,9.09,15.16,19.4,20.9,30.07a137.76,137.76,0,0,1,13.62,38.29,135,135,0,0,1-.87,58c-2.4,10.23-6.12,20.15-9,30.27a9,9,0,0,0,.35,5.79c15,32.93,24.92,67.24,27.81,103.38,1,12.62.88,25.32,1.43,38,.2,4.4-1.73,6.14-5.93,6.92-20,3.72-40.07,7.49-60,11.67-14.86,3.11-28,10-37.11,22.31-4.37,5.87-7.5,13-9.81,20-6.69,20.37-14,40.46-28.54,56.65-13.08,14.58-30.3,22.16-49.67,23.47-12.56.85-25.22.85-37.8-2.3-24.95-6.25-41.73-21.69-51.8-44.65-6-13.7-10.32-28.14-16.26-41.88-6.32-14.61-17.18-25.44-32.53-30.11-13.18-4-26.86-6.39-40.38-9.22-10.56-2.21-21.2-4-31.8-6C56.08,350.07,54.56,349.49,53,349Zm165.71,94.38,1.38-.27c1.35-5.12,2.94-10.19,4-15.37.91-4.5,3.16-6,7.77-6,14.81.26,29.62.09,44.43.09,10.29,0,10.14,0,12.2,9.89.82,3.94,2.49,7.7,3.92,12,1.32-1.15,1.83-1.39,2-1.77,7.31-17.22,15.34-34.18,21.69-51.74,7.45-20.59,20.16-36.6,38.53-47.77,15.12-9.18,32.15-14,49.4-17.7l20.86-4.47c-2.74-64.69-24.84-120-74.47-163.64,10-6.08,18.9-11.5,28-17l24.66,19.06c10.46-25.76,7.07-49.43-10.1-71.38-5.25,3.32-10.41,6.5-15.49,9.81-15.71,10.21-31.43,20.41-47,30.78-3.08,2-5.61,2.17-9,.62-8.29-3.81-16.66-7.56-25.25-10.59a120.38,120.38,0,0,0-61.75-4.78A140.67,140.67,0,0,0,192,127.65c-3.36,1.81-6.54,2.94-10.39.43-15.3-10-30.77-19.69-46.18-29.49-6.11-3.89-12.22-7.74-18.33-11.61-16.37,26.26-18.37,53.66-8,72.85L135,138.89l25.35,18.6c-48.59,44-71.91,98-72.49,162.13a19.53,19.53,0,0,0,2.21,1.15c1.55.51,3.12,1,4.7,1.41,19.5,4.92,39.28,8.73,57.51,18,16.7,8.47,29.73,20.38,37.36,37.49,8.58,19.25,16.46,38.8,24.74,58.18A74.31,74.31,0,0,0,218.74,443.42Z"/><circle class="b" cx="317.48" cy="291.34" r="23.51"/><circle class="b" cx="194.52" cy="291.34" r="23.51"/></svg>